<svg width="32" height="37" viewBox="0 0 32 37" fill="none" xmlns="http://www.w3.org/2000/svg">
<path d="M0 33.5312C0 35.4463 1.53571 37 3.42857 37H28.5714C30.4643 37 32 35.4463 32 33.5312V13.875H0V33.5312ZM22.8571 19.3672C22.8571 18.8902 23.2429 18.5 23.7143 18.5H26.5714C27.0429 18.5 27.4286 18.8902 27.4286 19.3672V22.2578C27.4286 22.7348 27.0429 23.125 26.5714 23.125H23.7143C23.2429 23.125 22.8571 22.7348 22.8571 22.2578V19.3672ZM22.8571 28.6172C22.8571 28.1402 23.2429 27.75 23.7143 27.75H26.5714C27.0429 27.75 27.4286 28.1402 27.4286 28.6172V31.5078C27.4286 31.9848 27.0429 32.375 26.5714 32.375H23.7143C23.2429 32.375 22.8571 31.9848 22.8571 31.5078V28.6172ZM13.7143 19.3672C13.7143 18.8902 14.1 18.5 14.5714 18.5H17.4286C17.9 18.5 18.2857 18.8902 18.2857 19.3672V22.2578C18.2857 22.7348 17.9 23.125 17.4286 23.125H14.5714C14.1 23.125 13.7143 22.7348 13.7143 22.2578V19.3672ZM13.7143 28.6172C13.7143 28.1402 14.1 27.75 14.5714 27.75H17.4286C17.9 27.75 18.2857 28.1402 18.2857 28.6172V31.5078C18.2857 31.9848 17.9 32.375 17.4286 32.375H14.5714C14.1 32.375 13.7143 31.9848 13.7143 31.5078V28.6172ZM4.57143 19.3672C4.57143 18.8902 4.95714 18.5 5.42857 18.5H8.28572C8.75714 18.5 9.14286 18.8902 9.14286 19.3672V22.2578C9.14286 22.7348 8.75714 23.125 8.28572 23.125H5.42857C4.95714 23.125 4.57143 22.7348 4.57143 22.2578V19.3672ZM4.57143 28.6172C4.57143 28.1402 4.95714 27.75 5.42857 27.75H8.28572C8.75714 27.75 9.14286 28.1402 9.14286 28.6172V31.5078C9.14286 31.9848 8.75714 32.375 8.28572 32.375H5.42857C4.95714 32.375 4.57143 31.9848 4.57143 31.5078V28.6172ZM28.5714 4.625H25.1429V1.15625C25.1429 0.520312 24.6286 0 24 0H21.7143C21.0857 0 20.5714 0.520312 20.5714 1.15625V4.625H11.4286V1.15625C11.4286 0.520312 10.9143 0 10.2857 0H8C7.37143 0 6.85714 0.520312 6.85714 1.15625V4.625H3.42857C1.53571 4.625 0 6.17871 0 8.09375V11.5625H32V8.09375C32 6.17871 30.4643 4.625 28.5714 4.625Z" fill="#FF5DA8"/>
</svg>
