<svg width="61" height="61" viewBox="0 0 61 61" fill="none" xmlns="http://www.w3.org/2000/svg">
<circle cx="30.5" cy="30.5" r="30" stroke="#FF5DA8"/>
<path d="M30.5 30.5C35.0766 30.5 38.7857 26.8068 38.7857 22.25C38.7857 17.6932 35.0766 14 30.5 14C25.9234 14 22.2143 17.6932 22.2143 22.25C22.2143 26.8068 25.9234 30.5 30.5 30.5ZM36.3 32.5625H35.219C33.7819 33.2199 32.183 33.5938 30.5 33.5938C28.817 33.5938 27.2246 33.2199 25.781 32.5625H24.7C19.8969 32.5625 16 36.4426 16 41.225V43.9062C16 45.6143 17.3917 47 19.1071 47H41.8929C43.6083 47 45 45.6143 45 43.9062V41.225C45 36.4426 41.1031 32.5625 36.3 32.5625Z" fill="#FF5DA8"/>
</svg>
