<svg width="61" height="61" viewBox="0 0 61 61" fill="none" xmlns="http://www.w3.org/2000/svg">
<circle cx="30.5" cy="30.5" r="30" stroke="#FF5DA8"/>
<path d="M15 43.5312C15 45.4463 16.5357 47 18.4286 47H43.5714C45.4643 47 47 45.4463 47 43.5312V23.875H15V43.5312ZM37.8571 29.3672C37.8571 28.8902 38.2429 28.5 38.7143 28.5H41.5714C42.0429 28.5 42.4286 28.8902 42.4286 29.3672V32.2578C42.4286 32.7348 42.0429 33.125 41.5714 33.125H38.7143C38.2429 33.125 37.8571 32.7348 37.8571 32.2578V29.3672ZM37.8571 38.6172C37.8571 38.1402 38.2429 37.75 38.7143 37.75H41.5714C42.0429 37.75 42.4286 38.1402 42.4286 38.6172V41.5078C42.4286 41.9848 42.0429 42.375 41.5714 42.375H38.7143C38.2429 42.375 37.8571 41.9848 37.8571 41.5078V38.6172ZM28.7143 29.3672C28.7143 28.8902 29.1 28.5 29.5714 28.5H32.4286C32.9 28.5 33.2857 28.8902 33.2857 29.3672V32.2578C33.2857 32.7348 32.9 33.125 32.4286 33.125H29.5714C29.1 33.125 28.7143 32.7348 28.7143 32.2578V29.3672ZM28.7143 38.6172C28.7143 38.1402 29.1 37.75 29.5714 37.75H32.4286C32.9 37.75 33.2857 38.1402 33.2857 38.6172V41.5078C33.2857 41.9848 32.9 42.375 32.4286 42.375H29.5714C29.1 42.375 28.7143 41.9848 28.7143 41.5078V38.6172ZM19.5714 29.3672C19.5714 28.8902 19.9571 28.5 20.4286 28.5H23.2857C23.7571 28.5 24.1429 28.8902 24.1429 29.3672V32.2578C24.1429 32.7348 23.7571 33.125 23.2857 33.125H20.4286C19.9571 33.125 19.5714 32.7348 19.5714 32.2578V29.3672ZM19.5714 38.6172C19.5714 38.1402 19.9571 37.75 20.4286 37.75H23.2857C23.7571 37.75 24.1429 38.1402 24.1429 38.6172V41.5078C24.1429 41.9848 23.7571 42.375 23.2857 42.375H20.4286C19.9571 42.375 19.5714 41.9848 19.5714 41.5078V38.6172ZM43.5714 14.625H40.1429V11.1562C40.1429 10.5203 39.6286 10 39 10H36.7143C36.0857 10 35.5714 10.5203 35.5714 11.1562V14.625H26.4286V11.1562C26.4286 10.5203 25.9143 10 25.2857 10H23C22.3714 10 21.8571 10.5203 21.8571 11.1562V14.625H18.4286C16.5357 14.625 15 16.1787 15 18.0938V21.5625H47V18.0938C47 16.1787 45.4643 14.625 43.5714 14.625Z" fill="#FF5DA8"/>
</svg>
