<svg width="72" height="64" viewBox="0 0 72 64" fill="none" xmlns="http://www.w3.org/2000/svg">
<path d="M70 8C71.105 8 72 7.105 72 6V2C72 0.895 71.105 0 70 0H2C0.895 0 0 0.895 0 2V6C0 7.105 0.895 8 2 8H3.9975V56H2C0.895 56 0 56.895 0 58V62C0 63.105 0.895 64 2 64H32V54C32 52.9 32.9 52 34 52H38C39.1 52 40 52.9 40 54V64H70C71.105 64 72 63.105 72 62V58C72 56.895 71.105 56 70 56H68V8H70ZM32 13.6C32 12.8 32.8 12 33.6 12H38.4C39.2 12 40 12.8 40 13.6V18.4C40 19.2 39.2 20 38.4 20H33.6C32.8 20 32 19.2 32 18.4V13.6ZM32 25.6C32 24.8 32.8 24 33.6 24H38.4C39.2 24 40 24.8 40 25.6V30.4C40 31.2 39.2 32 38.4 32H33.6C32.8 32 32 31.2 32 30.4V25.6ZM16 13.6C16 12.8 16.8 12 17.6 12H22.4C23.2 12 24 12.8 24 13.6V18.4C24 19.2 23.2 20 22.4 20H17.6C16.8 20 16 19.2 16 18.4V13.6ZM22.4 32H17.6C16.8 32 16 31.2 16 30.4V25.6C16 24.8 16.8 24 17.6 24H22.4C23.2 24 24 24.8 24 25.6V30.4C24 31.2 23.2 32 22.4 32ZM24 48C24 41.3725 29.3725 36 36 36C42.6275 36 48 41.3725 48 48H24ZM56 30.4C56 31.2 55.2 32 54.4 32H49.6C48.8 32 48 31.2 48 30.4V25.6C48 24.8 48.8 24 49.6 24H54.4C55.2 24 56 24.8 56 25.6V30.4ZM56 18.4C56 19.2 55.2 20 54.4 20H49.6C48.8 20 48 19.2 48 18.4V13.6C48 12.8 48.8 12 49.6 12H54.4C55.2 12 56 12.8 56 13.6V18.4Z" fill="#FF5DA8"/>
</svg>
