<svg width="73" height="64" viewBox="0 0 73 64" fill="none" xmlns="http://www.w3.org/2000/svg">
<path d="M66.9319 37.6649L72.9231 11.6649C73.3556 9.78763 71.9089 8 69.9571 8H20.1774L19.0157 2.39875C18.7263 1.00263 17.4807 0 16.0358 0H3.04167C1.36178 0 0 1.34312 0 3V5C0 6.65688 1.36178 8 3.04167 8H11.8984L20.8013 50.9294C18.6714 52.1375 17.2361 54.4027 17.2361 57C17.2361 60.866 20.4136 64 24.3333 64C28.253 64 31.4306 60.866 31.4306 57C31.4306 55.0407 30.6135 53.2706 29.2984 52H55.8682C54.5532 53.2706 53.7361 55.0407 53.7361 57C53.7361 60.866 56.9137 64 60.8333 64C64.753 64 67.9306 60.866 67.9306 57C67.9306 54.2285 66.2972 51.8335 63.9284 50.6994L64.6276 47.6649C65.0601 45.7876 63.6134 44 61.6616 44H27.6433L26.8138 40H63.9659C65.3861 40 66.6172 39.0308 66.9319 37.6649Z" fill="#FF5DA8"/>
</svg>
