<svg width="69" height="64" viewBox="0 0 69 64" fill="none" xmlns="http://www.w3.org/2000/svg">
<path d="M62.5312 12.8H51.75V6.4C51.75 2.86667 48.8525 0 45.2812 0H23.7188C20.1475 0 17.25 2.86667 17.25 6.4V12.8H6.46875C2.89746 12.8 0 15.6667 0 19.2V57.6C0 61.1333 2.89746 64 6.46875 64H62.5312C66.1025 64 69 61.1333 69 57.6V19.2C69 15.6667 66.1025 12.8 62.5312 12.8ZM25.875 8.53333H43.125V12.8H25.875V8.53333ZM47.4375 41.6C47.4375 42.1867 46.9523 42.6667 46.3594 42.6667H38.8125V50.1333C38.8125 50.72 38.3273 51.2 37.7344 51.2H31.2656C30.6727 51.2 30.1875 50.72 30.1875 50.1333V42.6667H22.6406C22.0477 42.6667 21.5625 42.1867 21.5625 41.6V35.2C21.5625 34.6133 22.0477 34.1333 22.6406 34.1333H30.1875V26.6667C30.1875 26.08 30.6727 25.6 31.2656 25.6H37.7344C38.3273 25.6 38.8125 26.08 38.8125 26.6667V34.1333H46.3594C46.9523 34.1333 47.4375 34.6133 47.4375 35.2V41.6Z" fill="#FF5DA8"/>
</svg>
