<svg width="61" height="61" viewBox="0 0 61 61" fill="none" xmlns="http://www.w3.org/2000/svg">
<circle cx="30.5" cy="30.5" r="30" stroke="#FF5DA8"/>
<path d="M49 30.5001V31.5001C49 32.3285 48.3098 33.0001 47.4583 33.0001H46.9444L45.267 44.4243C45.0501 45.9022 43.7491 47 42.2147 47H18.7853C17.2509 47 15.9499 45.9022 15.7329 44.4243L14.0556 33.0001H13.5417C12.6902 33.0001 12 32.3285 12 31.5001V30.5001C12 29.6717 12.6902 29.0001 13.5417 29.0001H17.8674L24.7265 19.8239C25.3943 18.9306 26.6798 18.7331 27.5979 19.3827C28.5161 20.0324 28.7191 21.2832 28.0513 22.1765L22.9508 29.0001H38.0492L32.9487 22.1765C32.2809 21.2832 32.484 20.0324 33.4021 19.3827C34.3201 18.733 35.6058 18.9305 36.2735 19.8238L43.1326 29.0001H47.4583C48.3098 29.0001 49 29.6717 49 30.5001ZM32.0417 41.5V34.5001C32.0417 33.6716 31.3514 33.0001 30.5 33.0001C29.6486 33.0001 28.9583 33.6716 28.9583 34.5001V41.5C28.9583 42.3285 29.6486 43 30.5 43C31.3514 43 32.0417 42.3285 32.0417 41.5ZM39.2361 41.5V34.5001C39.2361 33.6716 38.5459 33.0001 37.6944 33.0001C36.843 33.0001 36.1528 33.6716 36.1528 34.5001V41.5C36.1528 42.3285 36.843 43 37.6944 43C38.5459 43 39.2361 42.3285 39.2361 41.5ZM24.8472 41.5V34.5001C24.8472 33.6716 24.157 33.0001 23.3056 33.0001C22.4541 33.0001 21.7639 33.6716 21.7639 34.5001V41.5C21.7639 42.3285 22.4541 43 23.3056 43C24.157 43 24.8472 42.3285 24.8472 41.5Z" fill="#FF5DA8"/>
</svg>
