<svg width="72" height="64" viewBox="0 0 72 64" fill="none" xmlns="http://www.w3.org/2000/svg">
<path d="M34.4106 31.3139C35.2855 32.2388 36.7105 32.2388 37.5979 31.3139L51.2097 17.0395C55.1595 12.8897 54.9345 6.01494 50.5097 2.1901C46.6599 -1.14726 40.9227 -0.547283 37.3979 3.15256L35.998 4.615L34.6106 3.16506C31.0858 -0.547283 25.3486 -1.14726 21.4988 2.1901C17.0866 6.01494 16.8491 12.8897 20.7989 17.0395L34.4106 31.3139ZM70.6586 41.0135C69.1837 39.676 66.8838 39.7635 65.3339 41.0135L53.7845 50.2506C52.3721 51.388 50.6097 52.0005 48.7848 52.0005H33.9981C32.8982 52.0005 31.9982 51.1005 31.9982 50.0006C31.9982 48.9006 32.8982 48.0007 33.9981 48.0007H43.7851C45.7725 48.0007 47.6224 46.6382 47.9474 44.6758C48.3598 42.1759 46.4349 40.001 43.9976 40.001H23.9987C20.6239 40.001 17.3615 41.1635 14.7367 43.2884L8.92451 48.0007H1.99989C0.89995 48.0007 0 48.9006 0 50.0006V62.0001C0 63.1 0.89995 64 1.99989 64H46.5974C48.4098 64 50.1722 63.3875 51.5971 62.2501L70.4961 47.1257C72.396 45.6133 72.546 42.7134 70.6586 41.0135Z" fill="#FF5DA8"/>
</svg>
