<svg width="37" height="28" viewBox="0 0 37 28" fill="none" xmlns="http://www.w3.org/2000/svg">
<path d="M37 11.5001V12.5001C37 13.3285 36.3098 14.0001 35.4583 14.0001H34.9444L33.267 25.4243C33.0501 26.9022 31.7491 28 30.2147 28H6.78526C5.25085 28 3.94994 26.9022 3.73289 25.4243L2.05556 14.0001H1.54167C0.690217 14.0001 0 13.3285 0 12.5001V11.5001C0 10.6717 0.690217 10.0001 1.54167 10.0001H5.86739L12.7265 0.823859C13.3943 -0.0693849 14.6798 -0.266946 15.5979 0.382737C16.5161 1.03242 16.7191 2.28323 16.0513 3.17653L10.9508 10.0001H26.0492L20.9487 3.17647C20.2809 2.28323 20.484 1.03236 21.4021 0.382675C22.3201 -0.267009 23.6058 -0.0695099 24.2735 0.823797L31.1326 10.0001H35.4583C36.3098 10.0001 37 10.6717 37 11.5001ZM20.0417 22.5V15.5001C20.0417 14.6716 19.3514 14.0001 18.5 14.0001C17.6486 14.0001 16.9583 14.6716 16.9583 15.5001V22.5C16.9583 23.3285 17.6486 24 18.5 24C19.3514 24 20.0417 23.3285 20.0417 22.5ZM27.2361 22.5V15.5001C27.2361 14.6716 26.5459 14.0001 25.6944 14.0001C24.843 14.0001 24.1528 14.6716 24.1528 15.5001V22.5C24.1528 23.3285 24.843 24 25.6944 24C26.5459 24 27.2361 23.3285 27.2361 22.5ZM12.8472 22.5V15.5001C12.8472 14.6716 12.157 14.0001 11.3056 14.0001C10.4541 14.0001 9.76389 14.6716 9.76389 15.5001V22.5C9.76389 23.3285 10.4541 24 11.3056 24C12.157 24 12.8472 23.3285 12.8472 22.5Z" fill="#FF5DA8"/>
</svg>
